<!DOCTYPE svg PUBLIC "-//W3C//DTD SVG 1.1//EN" "http://www.w3.org/Graphics/SVG/1.1/DTD/svg11.dtd">
<!-- Uploaded to: SVG Repo, www.svgrepo.com, Transformed by: SVG Repo Mixer Tools -->
<svg width="800px" height="800px" viewBox="-4.8 -4.8 57.60 57.60" xmlns="http://www.w3.org/2000/svg" fill="#eda415" stroke="#eda415">
<g id="SVGRepo_bgCarrier" stroke-width="0"/>
<g id="SVGRepo_tracerCarrier" stroke-linecap="round" stroke-linejoin="round" stroke="#CCCCCC" stroke-width="0.096"/>
<g id="SVGRepo_iconCarrier"> <path d="M0 0h48v48H0z" fill="none"/> <g id="Shopicon"> <path d="M15.022,17.672l-1.553-3.686l-2.784,1.173C13.612,10.775,18.609,8,24,8c8.822,0,16,7.178,16,16h4c0-11.028-8.972-20-20-20 c-6.978,0-13.42,3.723-17.015,9.542l-0.987-2.92l-3.789,1.281l3.305,9.774L15.022,17.672z"/> <path d="M32.978,30.328l1.553,3.686l2.785-1.173C34.389,37.225,29.392,40,24,40c-8.822,0-16-7.178-16-16H4c0,11.028,8.972,20,20,20 c6.978,0,13.42-3.722,17.015-9.541l0.987,2.919l3.789-1.281l-3.305-9.774L32.978,30.328z"/> <path d="M21,14v2h-3v18h12V16h-3v-2H21z M26,30h-4V20h4V30z"/> </g> </g>
</svg>